<svg xmlns="http://www.w3.org/2000/svg" fill="none" viewBox="0 0 49.400000000000006 73.9864864864865" style="max-height: 500px" width="49.400000000000006" height="73.9864864864865">
<path fill="black" d="M63.7208 58V38.688H56.1048V34.2H76.8448V38.688H69.2288V58H63.7208ZM86.653 58.272C84.5676 58.272 82.7316 57.864 81.145 57.048C79.581 56.232 78.3683 55.1213 77.507 53.716C76.6456 52.288 76.215 50.6673 76.215 48.854C76.215 47.018 76.6343 45.3973 77.473 43.992C78.3343 42.564 79.5016 41.4533 80.975 40.66C82.4483 39.844 84.1143 39.436 85.973 39.436C87.7636 39.436 89.373 39.8213 90.801 40.592C92.2516 41.34 93.3963 42.428 94.235 43.856C95.0736 45.2613 95.493 46.95 95.493 48.922C95.493 49.126 95.4816 49.364 95.459 49.636C95.4363 49.8853 95.4136 50.1233 95.391 50.35H80.533V47.256H92.603L90.563 48.174C90.563 47.222 90.3703 46.3947 89.985 45.692C89.5996 44.9893 89.067 44.4453 88.387 44.06C87.707 43.652 86.9136 43.448 86.007 43.448C85.1003 43.448 84.2956 43.652 83.593 44.06C82.913 44.4453 82.3803 45.0007 81.995 45.726C81.6096 46.4287 81.417 47.2673 81.417 48.242V49.058C81.417 50.0553 81.6323 50.9393 82.063 51.71C82.5163 52.458 83.1396 53.036 83.933 53.444C84.749 53.8293 85.701 54.022 86.789 54.022C87.7636 54.022 88.6136 53.8747 89.339 53.58C90.087 53.2853 90.767 52.8433 91.379 52.254L94.201 55.314C93.3623 56.266 92.3083 57.0027 91.039 57.524C89.7696 58.0227 88.3076 58.272 86.653 58.272ZM107.864 58.272C105.892 58.272 104.136 57.8753 102.594 57.082C101.053 56.266 99.8402 55.144 98.9562 53.716C98.0948 52.288 97.6642 50.6673 97.6642 48.854C97.6642 47.018 98.0948 45.3973 98.9562 43.992C99.8402 42.564 101.053 41.4533 102.594 40.66C104.136 39.844 105.892 39.436 107.864 39.436C109.791 39.436 111.468 39.844 112.896 40.66C114.324 41.4533 115.378 42.598 116.058 44.094L111.944 46.304C111.468 45.4427 110.868 44.808 110.142 44.4C109.44 43.992 108.669 43.788 107.83 43.788C106.924 43.788 106.108 43.992 105.382 44.4C104.657 44.808 104.079 45.386 103.648 46.134C103.24 46.882 103.036 47.7887 103.036 48.854C103.036 49.9193 103.24 50.826 103.648 51.574C104.079 52.322 104.657 52.9 105.382 53.308C106.108 53.716 106.924 53.92 107.83 53.92C108.669 53.92 109.44 53.7273 110.142 53.342C110.868 52.934 111.468 52.288 111.944 51.404L116.058 53.648C115.378 55.1213 114.324 56.266 112.896 57.082C111.468 57.8753 109.791 58.272 107.864 58.272ZM130.13 39.436C131.581 39.436 132.873 39.7307 134.006 40.32C135.162 40.8867 136.069 41.7707 136.726 42.972C137.384 44.1507 137.712 45.6693 137.712 47.528V58H132.408V48.344C132.408 46.8707 132.08 45.7827 131.422 45.08C130.788 44.3773 129.881 44.026 128.702 44.026C127.864 44.026 127.104 44.2073 126.424 44.57C125.767 44.91 125.246 45.4427 124.86 46.168C124.498 46.8933 124.316 47.8227 124.316 48.956V58H119.012V32.772H124.316V44.774L123.126 43.244C123.784 42.02 124.724 41.0793 125.948 40.422C127.172 39.7647 128.566 39.436 130.13 39.436ZM147.824 58V38.688H140.208V34.2H160.948V38.688H153.332V58H147.824ZM163.538 58V39.708H168.842V58H163.538ZM166.19 37.158C165.215 37.158 164.422 36.8747 163.81 36.308C163.198 35.7413 162.892 35.0387 162.892 34.2C162.892 33.3613 163.198 32.6587 163.81 32.092C164.422 31.5253 165.215 31.242 166.19 31.242C167.165 31.242 167.958 31.514 168.57 32.058C169.182 32.5793 169.488 33.2593 169.488 34.098C169.488 34.982 169.182 35.7187 168.57 36.308C167.981 36.8747 167.187 37.158 166.19 37.158ZM197.19 39.436C198.641 39.436 199.922 39.7307 201.032 40.32C202.166 40.8867 203.05 41.7707 203.684 42.972C204.342 44.1507 204.67 45.6693 204.67 47.528V58H199.366V48.344C199.366 46.8707 199.06 45.7827 198.448 45.08C197.836 44.3773 196.975 44.026 195.864 44.026C195.094 44.026 194.402 44.2073 193.79 44.57C193.178 44.91 192.702 45.4313 192.362 46.134C192.022 46.8367 191.852 47.732 191.852 48.82V58H186.548V48.344C186.548 46.8707 186.242 45.7827 185.63 45.08C185.041 44.3773 184.191 44.026 183.08 44.026C182.31 44.026 181.618 44.2073 181.006 44.57C180.394 44.91 179.918 45.4313 179.578 46.134C179.238 46.8367 179.068 47.732 179.068 48.82V58H173.764V39.708H178.83V44.706L177.878 43.244C178.513 41.9973 179.408 41.0567 180.564 40.422C181.743 39.7647 183.08 39.436 184.576 39.436C186.254 39.436 187.716 39.8667 188.962 40.728C190.232 41.5667 191.07 42.8587 191.478 44.604L189.608 44.094C190.22 42.666 191.195 41.5327 192.532 40.694C193.892 39.8553 195.445 39.436 197.19 39.436ZM218.635 58.272C216.55 58.272 214.714 57.864 213.127 57.048C211.563 56.232 210.351 55.1213 209.489 53.716C208.628 52.288 208.197 50.6673 208.197 48.854C208.197 47.018 208.617 45.3973 209.455 43.992C210.317 42.564 211.484 41.4533 212.957 40.66C214.431 39.844 216.097 39.436 217.955 39.436C219.746 39.436 221.355 39.8213 222.783 40.592C224.234 41.34 225.379 42.428 226.217 43.856C227.056 45.2613 227.475 46.95 227.475 48.922C227.475 49.126 227.464 49.364 227.441 49.636C227.419 49.8853 227.396 50.1233 227.373 50.35H212.515V47.256H224.585L222.545 48.174C222.545 47.222 222.353 46.3947 221.967 45.692C221.582 44.9893 221.049 44.4453 220.369 44.06C219.689 43.652 218.896 43.448 217.989 43.448C217.083 43.448 216.278 43.652 215.575 44.06C214.895 44.4453 214.363 45.0007 213.977 45.726C213.592 46.4287 213.399 47.2673 213.399 48.242V49.058C213.399 50.0553 213.615 50.9393 214.045 51.71C214.499 52.458 215.122 53.036 215.915 53.444C216.731 53.8293 217.683 54.022 218.771 54.022C219.746 54.022 220.596 53.8747 221.321 53.58C222.069 53.2853 222.749 52.8433 223.361 52.254L226.183 55.314C225.345 56.266 224.291 57.0027 223.021 57.524C221.752 58.0227 220.29 58.272 218.635 58.272ZM237.161 58.272C235.597 58.272 234.089 58.0907 232.639 57.728C231.211 57.3427 230.077 56.8667 229.239 56.3L231.007 52.492C231.845 53.0133 232.831 53.444 233.965 53.784C235.121 54.1013 236.254 54.26 237.365 54.26C238.589 54.26 239.45 54.1127 239.949 53.818C240.47 53.5233 240.731 53.1153 240.731 52.594C240.731 52.1633 240.527 51.846 240.119 51.642C239.733 51.4153 239.212 51.2453 238.555 51.132C237.897 51.0187 237.172 50.9053 236.379 50.792C235.608 50.6787 234.826 50.5313 234.033 50.35C233.239 50.146 232.514 49.8513 231.857 49.466C231.199 49.0807 230.667 48.5593 230.259 47.902C229.873 47.2447 229.681 46.3947 229.681 45.352C229.681 44.196 230.009 43.176 230.667 42.292C231.347 41.408 232.321 40.7167 233.591 40.218C234.86 39.6967 236.379 39.436 238.147 39.436C239.393 39.436 240.663 39.572 241.955 39.844C243.247 40.116 244.323 40.5127 245.185 41.034L243.417 44.808C242.533 44.2867 241.637 43.9353 240.731 43.754C239.847 43.55 238.985 43.448 238.147 43.448C236.968 43.448 236.107 43.6067 235.563 43.924C235.019 44.2413 234.747 44.6493 234.747 45.148C234.747 45.6013 234.939 45.9413 235.325 46.168C235.733 46.3947 236.265 46.576 236.923 46.712C237.58 46.848 238.294 46.9727 239.065 47.086C239.858 47.1767 240.651 47.324 241.445 47.528C242.238 47.732 242.952 48.0267 243.587 48.412C244.244 48.7747 244.777 49.2847 245.185 49.942C245.593 50.5767 245.797 51.4153 245.797 52.458C245.797 53.5913 245.457 54.6 244.777 55.484C244.097 56.3453 243.111 57.0253 241.819 57.524C240.549 58.0227 238.997 58.272 237.161 58.272Z"/>
<path fill="#0300FF" d="M24.4588 0.613281H25.2768L25.9721 0.735984L26.5856 0.940489L27.3627 1.3495L27.8535 1.71761L28.3444 2.20842L28.7125 2.74013L29.0806 3.47635L29.2442 4.13076L29.2851 4.37617V5.43959L29.1624 6.21671L28.9579 6.70752L28.6307 7.36194L28.2216 7.89365L27.8944 8.22086L27.5672 8.50716L27.1582 8.87527L26.831 9.16158L26.3402 9.61149L25.9312 9.9796L25.604 10.2659L23.3953 12.4746L23.109 12.8018L22.5773 13.4153L22.0865 13.9879L21.7184 14.4378L21.3912 14.8059L21.0231 15.2967L20.4914 15.9511L20.0824 16.5237L19.5506 17.2191L19.1825 17.7099L18.8962 18.1598L18.4872 18.7324L17.6692 19.9594L17.4238 20.4502V20.8183L17.7101 20.8592L18.0373 20.6956L18.6917 20.2457L19.1007 19.8776L20.1233 19.1823L20.7368 18.7324L21.3094 18.3234L22.0456 17.8735L22.9045 17.3418L23.7634 16.851L24.786 16.2783L25.9312 15.6648L27.1173 15.0922L27.7717 14.765L29.1215 14.1515L30.144 13.7016L31.4119 13.2108L32.4753 12.8018L33.866 12.27L34.7658 11.9428L35.3793 11.7792L35.8701 11.6156L36.1155 11.5747H37.3017L38.4469 11.9837L39.1013 12.3519L39.633 12.7609L40.042 13.2108L40.451 13.8243L40.8191 14.6423L40.9827 15.3785L41.0236 15.7057V16.3601L40.9009 17.0964L40.7373 17.5872L40.2874 18.4461L39.9193 18.9369L39.4694 19.3868L38.7741 19.8367L38.1606 20.123L35.7474 20.941L34.5613 21.3501L33.4979 21.7591L32.1481 22.2908L31.2074 22.6998L30.1849 23.1497L29.6941 23.3542L28.5489 23.9268L27.9762 24.254L27.8535 24.4176V24.7448L28.058 24.8675L29.2442 24.9902L29.8986 25.1947L30.8393 25.4402L32.6799 26.0128L33.8251 26.4627L34.5613 26.7899L35.1339 27.0353L36.0337 27.5261L37.0563 28.0987L38.2015 28.8758L38.7741 29.2848L39.4285 29.8166L39.8784 30.1847L40.3692 30.6346L40.9009 31.1254L41.9644 32.1888L42.2507 32.516L42.7415 33.0886L43.1505 33.5794L43.6413 34.2339L44.0912 34.8474L44.582 35.6245L45.0319 36.3607L45.3591 36.9333L45.7272 37.7513L45.8909 38.2421L45.9727 38.6921V39.7146L45.85 40.4508L45.4818 41.3506L45.1955 41.8414L44.7456 42.3322L44.4593 42.6185L43.8458 43.0685L43.0687 43.4366L42.0462 43.682H41.5963L40.6146 43.5593L39.9602 43.3957L39.3467 43.0685L38.8968 42.7412L38.4878 42.3731L38.2015 42.0868L37.8334 41.5551L37.3426 40.6144L36.9744 40.0009L36.4427 39.2238L35.9928 38.6512L35.3384 37.9558L34.4795 37.0969L34.0296 36.7288L33.4161 36.238L32.639 35.7063L32.0254 35.2973L31.0438 34.7656L30.3894 34.4793L29.6941 34.193L29.0397 33.9884L28.4262 33.7839L27.4445 33.5385L26.3811 33.334L25.5631 33.2522L24.7451 33.2113H23.3953L22.2092 33.2931L21.473 33.4158L20.4096 33.6612L19.3461 33.9475L18.978 34.1111L18.3645 34.3157L17.5465 34.6838L16.3604 35.2973L15.3788 35.9517L14.6425 36.4834L14.2335 36.8515L13.7836 37.2196L12.5566 38.4466L12.1885 38.8966L11.6568 39.5919L11.2478 40.2054L10.5933 41.3506L10.2661 42.005L9.77532 43.1503L9.44812 44.1728L9.16181 45.2771L8.9164 46.9949L8.8346 47.5267V49.449L9.03911 50.7578L9.16181 51.7395L9.36631 52.5166L9.61172 53.3346L9.93893 54.1935L10.2661 54.9706L10.7569 55.9114L11.166 56.6067L11.984 57.8337L12.3521 58.2836L12.8429 58.8153L13.1292 59.1425L13.6609 59.6333L14.1108 60.0832L14.6834 60.5332L15.5015 61.1467L16.2786 61.6375L17.0148 62.0465L17.6692 62.3737L18.8553 62.8645L19.837 63.1917L20.9413 63.478L21.9638 63.6825L22.7818 63.7643L23.9679 63.8052H24.4997L25.604 63.7643L26.3811 63.6825L27.8126 63.3962L28.917 63.1099L29.6941 62.8236L30.8393 62.3328L31.8618 61.8011L32.8435 61.1876L34.0705 60.2468L34.4795 59.8787L35.7883 58.5699L36.2382 57.9973L36.7699 57.2611L37.3017 56.4022L37.7925 55.5023L38.1606 54.9297L38.7741 54.3162L39.3876 53.9072L40.042 53.6209L40.7782 53.4164L41.6372 53.2937L42.1689 53.3346L43.2732 53.6618L44.0912 54.0708L44.5411 54.4389L44.9092 54.7661L45.2364 55.216L45.5636 55.7886L45.85 56.5658L45.9727 57.2202V58.2836L45.85 58.8971L45.6045 59.5106L45.2773 60.165L44.9092 60.8195L44.4184 61.5966L44.0094 62.2101L43.4368 62.9872L42.9869 63.5598L42.537 64.0915L42.2507 64.4187L41.8826 64.8278L41.3918 65.3595L41.1463 65.6458L40.8191 65.9321L40.5328 66.2184L40.2056 66.5047L39.7966 66.8728L39.224 67.3227L38.6105 67.8135L37.9561 68.2634L37.2199 68.7951L36.6063 69.1633L35.9519 69.5314L34.1523 70.4312L33.048 70.8811L32.0663 71.2492L30.8802 71.6173L29.6532 71.9445L28.9579 72.1081L27.1991 72.3944L26.3402 72.4762L25.2359 72.5171H22.9045L21.473 72.4353L20.3687 72.2717L18.978 72.0263L17.7101 71.6991L16.1559 71.2083L15.5015 70.9629L14.7243 70.6766L13.7018 70.1858L12.5157 69.6132L11.575 69.0815L10.4706 68.3452L9.65262 67.7726L8.34379 66.7092L7.85298 66.2593L7.19857 65.6458L6.58505 65.0323L6.29874 64.7051L5.84883 64.2142L5.52163 63.8052L5.07172 63.2326L4.66271 62.7009L4.2128 62.0465L3.80379 61.433L3.10847 60.2468L2.74036 59.5924L2.20865 58.529L1.79964 57.5883L1.30883 56.1977L0.940722 55.0115L0.572613 53.5391L0.44991 52.9665L0.286307 51.9031L0.204505 51.494L0.0818019 49.6944L0.0409009 41.4324V14.7241L0 8.26176V6.50302L0.122703 5.7259L0.368108 4.98968L0.695316 4.37617L1.02252 3.92626L1.47243 3.43545L1.96325 3.02644L2.74036 2.61743L3.59928 2.37202L4.00829 2.29022L4.74451 2.24932L5.43982 2.37202L6.05334 2.57653L6.83046 2.94463L7.36217 3.35364L7.64848 3.63995L8.05748 4.17166L8.34379 4.62157L8.7119 5.43959L8.7937 5.7668V8.87527L8.7119 16.0738V17.4645L8.8346 17.7508L9.12091 17.7917L9.36631 17.5872L9.85713 16.7283L10.2661 15.9511L10.7569 15.1331L11.575 13.7425L11.8613 13.3335L12.4339 12.4746L12.8429 11.9019L13.4155 11.0839L13.8245 10.5113L14.3153 9.85689L14.8061 9.24338L15.0924 8.87527L15.5833 8.26176L15.9514 7.81185L16.4831 7.23923L16.8512 6.78932L17.4647 6.13491L17.8328 5.7259L18.5281 5.03058L18.8144 4.70337L19.9597 3.55815L20.2869 3.27184L20.7777 2.78103L21.1049 2.49472L21.5139 2.08572L21.8411 1.79941L22.6182 1.2268L23.3953 0.858687L23.927 0.695083L24.4588 0.613281Z"/>
<path fill="#0300FF" d="M34.1871 41.3516L34.5961 41.3925L35.0052 41.597L35.2097 41.8424L35.3324 42.0878V42.4968L35.1688 42.9058L34.8416 43.2739L34.0644 43.8465L33.4509 44.2964L33.001 44.6236L32.3466 45.1553L31.5286 45.7689L30.7924 46.3006L29.4017 47.364L28.8291 47.773L28.2974 48.182L27.6021 48.6728L26.7432 49.3272L26.0478 49.8181L25.3934 50.3089L24.8208 50.7997L24.4936 51.086L23.8801 51.4132L23.6756 51.4541H23.3484L22.8985 51.2905L22.5304 51.0451L21.876 50.3498L21.4669 49.9817L20.7307 49.4499L20.0763 48.9591L19.3401 48.3865L18.6039 47.8548L17.9086 47.3231L17.5405 47.0368L17.0087 46.5869L16.0271 45.8507L15.5363 45.4417L15.2909 44.9508L15.25 44.6645L15.4136 44.2146L15.5772 43.9692L15.9862 43.7238L16.1089 43.6829H16.5588L16.9678 43.8465L17.745 44.4191L18.3585 44.9099L19.0129 45.4008L19.5446 45.7689L20.1172 46.2188L20.8534 46.7914L21.5078 47.2822L22.2032 47.8139L22.694 48.2229L23.1848 48.5092L23.5529 48.591H23.8801L24.2891 48.4274L24.7799 48.0593L25.4752 47.5276L26.1706 47.0368L26.7023 46.6278L27.5203 46.0143L29.688 44.4191L30.4242 43.8874L30.956 43.4784L31.7331 42.9467L32.5102 42.3741L33.1237 41.9242L33.7372 41.5152L34.1871 41.3516Z"/>
</svg>